<svg width="33" height="12" viewBox="0 0 33 12" fill="none" xmlns="http://www.w3.org/2000/svg">
<path d="M8.323 8.928C8.39767 8.928 8.463 8.95833 8.519 9.019L9.058 9.6C8.64733 10.076 8.148 10.447 7.56 10.713C6.97667 10.979 6.26967 11.112 5.439 11.112C4.72033 11.112 4.067 10.9883 3.479 10.741C2.891 10.489 2.38933 10.139 1.974 9.691C1.55867 9.23833 1.23667 8.697 1.008 8.067C0.779333 7.437 0.665 6.744 0.665 5.988C0.665 5.232 0.784 4.539 1.022 3.909C1.26 3.279 1.59367 2.73767 2.023 2.285C2.457 1.83233 2.975 1.48233 3.577 1.235C4.179 0.982999 4.844 0.856999 5.572 0.856999C6.286 0.856999 6.916 0.971333 7.462 1.2C8.008 1.42867 8.48867 1.739 8.904 2.131L8.456 2.754C8.428 2.80067 8.39067 2.84033 8.344 2.873C8.302 2.901 8.24367 2.915 8.169 2.915C8.085 2.915 7.98233 2.87067 7.861 2.782C7.73967 2.68867 7.581 2.586 7.385 2.474C7.189 2.362 6.944 2.26167 6.65 2.173C6.356 2.07967 5.99433 2.033 5.565 2.033C5.047 2.033 4.57333 2.124 4.144 2.306C3.71467 2.48333 3.34367 2.74233 3.031 3.083C2.723 3.42367 2.48267 3.839 2.31 4.329C2.13733 4.819 2.051 5.372 2.051 5.988C2.051 6.61333 2.13967 7.171 2.317 7.661C2.499 8.151 2.744 8.56633 3.052 8.907C3.36467 9.243 3.731 9.49967 4.151 9.677C4.57567 9.85433 5.033 9.943 5.523 9.943C5.82167 9.943 6.09 9.92667 6.328 9.894C6.57067 9.85667 6.79233 9.80067 6.993 9.726C7.19833 9.65133 7.38733 9.558 7.56 9.446C7.73733 9.32933 7.91233 9.19167 8.085 9.033C8.16433 8.963 8.24367 8.928 8.323 8.928ZM11.6266 0.689V11H10.3806V0.689H11.6266ZM18.3932 6.681C18.3932 6.39167 18.3512 6.128 18.2672 5.89C18.1878 5.64733 18.0688 5.43967 17.9102 5.267C17.7562 5.08967 17.5672 4.95433 17.3432 4.861C17.1192 4.763 16.8648 4.714 16.5802 4.714C15.9828 4.714 15.5092 4.889 15.1592 5.239C14.8138 5.58433 14.5992 6.065 14.5152 6.681H18.3932ZM19.4012 10.006C19.2472 10.1927 19.0628 10.356 18.8482 10.496C18.6335 10.6313 18.4025 10.7433 18.1552 10.832C17.9125 10.9207 17.6605 10.986 17.3992 11.028C17.1378 11.0747 16.8788 11.098 16.6222 11.098C16.1322 11.098 15.6795 11.0163 15.2642 10.853C14.8535 10.685 14.4965 10.4423 14.1932 10.125C13.8945 9.803 13.6612 9.40633 13.4932 8.935C13.3252 8.46367 13.2412 7.92233 13.2412 7.311C13.2412 6.81633 13.3158 6.35433 13.4652 5.925C13.6192 5.49567 13.8385 5.12467 14.1232 4.812C14.4078 4.49467 14.7555 4.24733 15.1662 4.07C15.5768 3.888 16.0388 3.797 16.5522 3.797C16.9768 3.797 17.3688 3.86933 17.7282 4.014C18.0922 4.154 18.4048 4.35933 18.6662 4.63C18.9322 4.896 19.1398 5.22733 19.2892 5.624C19.4385 6.016 19.5132 6.464 19.5132 6.968C19.5132 7.164 19.4922 7.29467 19.4502 7.36C19.4082 7.42533 19.3288 7.458 19.2122 7.458H14.4732C14.4872 7.906 14.5478 8.29567 14.6552 8.627C14.7672 8.95833 14.9212 9.236 15.1172 9.46C15.3132 9.67933 15.5465 9.845 15.8172 9.957C16.0878 10.0643 16.3912 10.118 16.7272 10.118C17.0398 10.118 17.3082 10.083 17.5322 10.013C17.7608 9.93833 17.9568 9.859 18.1202 9.775C18.2835 9.691 18.4188 9.614 18.5262 9.544C18.6382 9.46933 18.7338 9.432 18.8132 9.432C18.9158 9.432 18.9952 9.47167 19.0512 9.551L19.4012 10.006ZM24.8866 7.808C24.3126 7.82667 23.8226 7.87333 23.4166 7.948C23.0153 8.018 22.6863 8.11133 22.4296 8.228C22.1776 8.34467 21.9933 8.48233 21.8766 8.641C21.7646 8.79967 21.7086 8.977 21.7086 9.173C21.7086 9.35967 21.739 9.52067 21.7996 9.656C21.8603 9.79133 21.942 9.90333 22.0446 9.992C22.152 10.076 22.2756 10.139 22.4156 10.181C22.5603 10.2183 22.7143 10.237 22.8776 10.237C23.097 10.237 23.2976 10.216 23.4796 10.174C23.6616 10.1273 23.832 10.062 23.9906 9.978C24.154 9.894 24.308 9.79367 24.4526 9.677C24.602 9.56033 24.7466 9.42733 24.8866 9.278V7.808ZM20.8616 4.91C21.2536 4.532 21.676 4.24967 22.1286 4.063C22.5813 3.87633 23.083 3.783 23.6336 3.783C24.0303 3.783 24.3826 3.84833 24.6906 3.979C24.9986 4.10967 25.2576 4.29167 25.4676 4.525C25.6776 4.75833 25.8363 5.04067 25.9436 5.372C26.051 5.70333 26.1046 6.06733 26.1046 6.464V11H25.5516C25.4303 11 25.337 10.9813 25.2716 10.944C25.2063 10.902 25.155 10.8227 25.1176 10.706L24.9776 10.034C24.791 10.2067 24.609 10.3607 24.4316 10.496C24.2543 10.6267 24.0676 10.7387 23.8716 10.832C23.6756 10.9207 23.4656 10.9883 23.2416 11.035C23.0223 11.0863 22.7773 11.112 22.5066 11.112C22.2313 11.112 21.9723 11.0747 21.7296 11C21.487 10.9207 21.2746 10.804 21.0926 10.65C20.9153 10.496 20.773 10.3023 20.6656 10.069C20.563 9.831 20.5116 9.551 20.5116 9.229C20.5116 8.949 20.5886 8.68067 20.7426 8.424C20.8966 8.16267 21.1463 7.93167 21.4916 7.731C21.837 7.53033 22.2873 7.367 22.8426 7.241C23.398 7.11033 24.0793 7.03567 24.8866 7.017V6.464C24.8866 5.91333 24.7676 5.498 24.5296 5.218C24.2916 4.93333 23.944 4.791 23.4866 4.791C23.1786 4.791 22.9196 4.83067 22.7096 4.91C22.5043 4.98467 22.3246 5.071 22.1706 5.169C22.0213 5.26233 21.8906 5.34867 21.7786 5.428C21.6713 5.50267 21.564 5.54 21.4566 5.54C21.3726 5.54 21.3003 5.519 21.2396 5.477C21.179 5.43033 21.1276 5.37433 21.0856 5.309L20.8616 4.91ZM29.1856 5.33C29.4096 4.84467 29.685 4.46667 30.0116 4.196C30.3383 3.92067 30.7373 3.783 31.2086 3.783C31.358 3.783 31.5003 3.79933 31.6356 3.832C31.7756 3.86467 31.8993 3.916 32.0066 3.986L31.9156 4.917C31.8876 5.03367 31.8176 5.092 31.7056 5.092C31.6403 5.092 31.5446 5.078 31.4186 5.05C31.2926 5.022 31.1503 5.008 30.9916 5.008C30.7676 5.008 30.567 5.04067 30.3896 5.106C30.217 5.17133 30.0606 5.26933 29.9206 5.4C29.7853 5.526 29.6616 5.68467 29.5496 5.876C29.4423 6.06267 29.3443 6.27733 29.2556 6.52V11H28.0026V3.909H28.7166C28.852 3.909 28.9453 3.93467 28.9966 3.986C29.048 4.03733 29.083 4.126 29.1016 4.252L29.1856 5.33Z" fill="#A9A9A9"/>
</svg>
