<svg width="18" height="18" viewBox="0 0 18 18" fill="none" xmlns="http://www.w3.org/2000/svg">
<path d="M6.68571 0C8.45888 0 10.1594 0.704386 11.4132 1.9582C12.667 3.21202 13.3714 4.91255 13.3714 6.68571C13.3714 8.34171 12.7646 9.864 11.7669 11.0366L12.0446 11.3143H12.8571L18 16.4571L16.4571 18L11.3143 12.8571V12.0446L11.0366 11.7669C9.864 12.7646 8.34171 13.3714 6.68571 13.3714C4.91255 13.3714 3.21202 12.667 1.9582 11.4132C0.704386 10.1594 0 8.45888 0 6.68571C0 4.91255 0.704386 3.21202 1.9582 1.9582C3.21202 0.704386 4.91255 0 6.68571 0ZM6.68571 2.05714C4.11429 2.05714 2.05714 4.11429 2.05714 6.68571C2.05714 9.25714 4.11429 11.3143 6.68571 11.3143C9.25714 11.3143 11.3143 9.25714 11.3143 6.68571C11.3143 4.11429 9.25714 2.05714 6.68571 2.05714Z" fill="#A9A9A9"/>
</svg>
