<svg width="37" height="9" viewBox="0 0 37 9" fill="none" xmlns="http://www.w3.org/2000/svg">
<path d="M4.26923 9C3.13696 9 2.05106 8.5259 1.25043 7.68198C0.449793 6.83807 0 5.69347 0 4.5C0 3.30653 0.449793 2.16193 1.25043 1.31802C2.05106 0.474105 3.13696 0 4.26923 0C5.4015 0 6.4874 0.474105 7.28803 1.31802C8.08867 2.16193 8.53846 3.30653 8.53846 4.5C8.53846 5.69347 8.08867 6.83807 7.28803 7.68198C6.4874 8.5259 5.4015 9 4.26923 9ZM18.5 9C17.3677 9 16.2818 8.5259 15.4812 7.68198C14.6806 6.83807 14.2308 5.69347 14.2308 4.5C14.2308 3.30653 14.6806 2.16193 15.4812 1.31802C16.2818 0.474105 17.3677 0 18.5 0C19.6323 0 20.7182 0.474105 21.5188 1.31802C22.3194 2.16193 22.7692 3.30653 22.7692 4.5C22.7692 5.69347 22.3194 6.83807 21.5188 7.68198C20.7182 8.5259 19.6323 9 18.5 9ZM32.7308 9C31.5985 9 30.5126 8.5259 29.712 7.68198C28.9113 6.83807 28.4615 5.69347 28.4615 4.5C28.4615 3.30653 28.9113 2.16193 29.712 1.31802C30.5126 0.474105 31.5985 0 32.7308 0C33.863 0 34.9489 0.474105 35.7496 1.31802C36.5502 2.16193 37 3.30653 37 4.5C37 5.69347 36.5502 6.83807 35.7496 7.68198C34.9489 8.5259 33.863 9 32.7308 9Z" fill="#2A2D36"/>
</svg>
