<svg width="22" height="20" viewBox="0 0 22 20" fill="none" xmlns="http://www.w3.org/2000/svg">
<path d="M11.5844 4.4741H10.4188C10.3122 4.4741 10.2249 4.55734 10.2249 4.65908V11.0248C10.2249 11.0849 10.254 11.1404 10.3049 11.1751L14.3107 13.9661C14.3979 14.0262 14.5191 14.01 14.5821 13.9267L15.2752 13.025C15.3406 12.9394 15.3212 12.8238 15.234 12.766L11.7783 10.382V4.65908C11.7783 4.55734 11.6911 4.4741 11.5844 4.4741ZM16.9109 6.21294L20.7107 7.09855C20.8319 7.1263 20.9507 7.03843 20.9507 6.9205L20.97 3.18615C20.97 3.03123 20.7834 2.94336 20.6574 3.04048L16.8382 5.88691C16.8094 5.90821 16.7874 5.93686 16.7748 5.96955C16.7623 6.00225 16.7596 6.03766 16.7672 6.07172C16.7748 6.10578 16.7924 6.1371 16.8178 6.16208C16.8432 6.18706 16.8755 6.20469 16.9109 6.21294ZM20.9749 13.1753L19.6009 12.7244C19.5529 12.7087 19.5005 12.7115 19.4548 12.7323C19.409 12.753 19.3736 12.79 19.3561 12.8353C19.3101 12.9533 19.2616 13.0689 19.2107 13.1845C18.7793 14.158 18.1614 15.0343 17.3714 15.7858C16.5901 16.5336 15.6643 17.1296 14.6451 17.5409C13.5893 17.9668 12.4544 18.1854 11.3082 18.1837C10.1498 18.1837 9.02781 17.9686 7.97123 17.5409C6.95207 17.1296 6.02621 16.5336 5.24497 15.7858C4.45738 15.0343 3.83943 14.158 3.40565 13.1845C2.96174 12.1765 2.7343 11.0938 2.73681 10.0005C2.73681 8.8952 2.96218 7.8223 3.4105 6.81414C3.84185 5.84066 4.45981 4.9643 5.24982 4.21281C6.03106 3.46506 6.95692 2.86904 7.97608 2.45778C9.02781 2.03001 10.1522 1.81496 11.3106 1.81496C12.469 1.81496 13.591 2.03001 14.6475 2.45778C15.6667 2.86904 16.5926 3.46506 17.3738 4.21281C17.621 4.45098 17.8536 4.69839 18.0669 4.95968L19.516 3.87753C17.6089 1.55136 14.6403 0.0553076 11.3058 0.0576199C5.49942 0.0599322 0.836909 4.55965 0.89507 10.1022C0.95323 15.5477 5.59393 19.9433 11.3106 19.9433C15.8059 19.9433 19.6348 17.2241 21.0936 13.4157C21.13 13.3186 21.0767 13.2099 20.9749 13.1753Z" fill="#545454"/>
</svg>
