<svg width="15" height="20" viewBox="0 0 15 20" fill="none" xmlns="http://www.w3.org/2000/svg">
<path d="M4 0C5.06087 0 6.07828 0.421427 6.82843 1.17157C7.57857 1.92172 8 2.93913 8 4H0C0 2.93913 0.421427 1.92172 1.17157 1.17157C1.92172 0.421427 2.93913 0 4 0ZM6.84 6.82L6 15H5V16C5 16.5304 5.21071 17.0391 5.58579 17.4142C5.96086 17.7893 6.46957 18 7 18C7.53043 18 8.03914 17.7893 8.41421 17.4142C8.78929 17.0391 9 16.5304 9 16V11C9 9.93913 9.42143 8.92172 10.1716 8.17157C10.9217 7.42143 11.9391 7 13 7H15L14 8L15 9H13C12.4696 9 11.9609 9.21071 11.5858 9.58579C11.2107 9.96086 11 10.4696 11 11V16C11 17.0609 10.5786 18.0783 9.82843 18.8284C9.07828 19.5786 8.06087 20 7 20C5.93913 20 4.92172 19.5786 4.17157 18.8284C3.42143 18.0783 3 17.0609 3 16V15H2L1.16 6.82C0.67 6.32 0.31 5.7 0.13 5H7.87C7.69 5.7 7.33 6.32 6.84 6.82ZM4 8C3.73478 8 3.48043 8.10536 3.29289 8.29289C3.10536 8.48043 3 8.73478 3 9C3 9.26522 3.10536 9.51957 3.29289 9.70711C3.48043 9.89464 3.73478 10 4 10C4.26522 10 4.51957 9.89464 4.70711 9.70711C4.89464 9.51957 5 9.26522 5 9C5 8.73478 4.89464 8.48043 4.70711 8.29289C4.51957 8.10536 4.26522 8 4 8Z" fill="#545454"/>
</svg>
