<svg width="22" height="21" viewBox="0 0 22 21" fill="none" xmlns="http://www.w3.org/2000/svg">
<path d="M16 17.25V20.5H6V17.25C6 15.87 8.24 14.75 11 14.75C13.76 14.75 16 15.87 16 17.25ZM11 4.5C12.7239 4.5 14.3772 5.18482 15.5962 6.40381C16.8152 7.62279 17.5 9.27609 17.5 11C17.5 12.25 17.15 13.42 16.54 14.41L15 13.04C15.32 12.43 15.5 11.73 15.5 11C15.5 8.5 13.5 6.5 11 6.5C8.5 6.5 6.5 8.5 6.5 11C6.5 11.73 6.68 12.43 7 13.04L5.46 14.41C4.85 13.42 4.5 12.25 4.5 11C4.5 9.27609 5.18482 7.62279 6.40381 6.40381C7.62279 5.18482 9.27609 4.5 11 4.5ZM11 0.5C13.7848 0.5 16.4555 1.60625 18.4246 3.57538C20.3938 5.54451 21.5 8.21523 21.5 11C21.5 13.28 20.77 15.39 19.54 17.11L18.04 15.76C18.96 14.4 19.5 12.76 19.5 11C19.5 8.74566 18.6045 6.58365 17.0104 4.98959C15.4163 3.39553 13.2543 2.5 11 2.5C8.74566 2.5 6.58365 3.39553 4.98959 4.98959C3.39553 6.58365 2.5 8.74566 2.5 11C2.5 12.76 3.04 14.4 3.96 15.76L2.46 17.11C1.23 15.39 0.5 13.28 0.5 11C0.5 8.21523 1.60625 5.54451 3.57538 3.57538C5.54451 1.60625 8.21523 0.5 11 0.5ZM11 8.5C11.663 8.5 12.2989 8.76339 12.7678 9.23223C13.2366 9.70107 13.5 10.337 13.5 11C13.5 11.663 13.2366 12.2989 12.7678 12.7678C12.2989 13.2366 11.663 13.5 11 13.5C10.337 13.5 9.70107 13.2366 9.23223 12.7678C8.76339 12.2989 8.5 11.663 8.5 11C8.5 10.337 8.76339 9.70107 9.23223 9.23223C9.70107 8.76339 10.337 8.5 11 8.5Z" fill="#545454"/>
</svg>
