<svg width="53" height="52" viewBox="0 0 53 52" fill="none" xmlns="http://www.w3.org/2000/svg">
<path d="M26.4994 41.6002C20.9785 41.6002 16.0981 38.8268 13.2493 34.6668C13.3156 30.3335 22.0827 27.9502 26.4994 27.9502C30.916 27.9502 39.6831 30.3335 39.7494 34.6668C36.9006 38.8268 32.0202 41.6002 26.4994 41.6002ZM26.4994 10.8335C28.2564 10.8335 29.9415 11.5183 31.1839 12.7373C32.4264 13.9563 33.1244 15.6096 33.1244 17.3335C33.1244 19.0574 32.4264 20.7107 31.1839 21.9297C29.9415 23.1487 28.2564 23.8335 26.4994 23.8335C24.7423 23.8335 23.0572 23.1487 21.8148 21.9297C20.5723 20.7107 19.8743 19.0574 19.8743 17.3335C19.8743 15.6096 20.5723 13.9563 21.8148 12.7373C23.0572 11.5183 24.7423 10.8335 26.4994 10.8335ZM26.4994 4.3335C23.5993 4.3335 20.7277 4.89392 18.0484 5.98277C15.3692 7.07162 12.9347 8.66758 10.8841 10.6795C6.74265 14.7428 4.41602 20.2538 4.41602 26.0002C4.41602 31.7465 6.74265 37.2575 10.8841 41.3208C12.9347 43.3327 15.3692 44.9287 18.0484 46.0176C20.7277 47.1064 23.5993 47.6668 26.4994 47.6668C32.3562 47.6668 37.9732 45.3841 42.1146 41.3208C46.2561 37.2575 48.5827 31.7465 48.5827 26.0002C48.5827 14.0185 38.6452 4.3335 26.4994 4.3335Z" fill="#3E3E3E" fill-opacity="0.85"/>
</svg>
