<svg width="24" height="24" viewBox="0 0 24 24" fill="none" xmlns="http://www.w3.org/2000/svg">
<path d="M12 2.03906C6.5 2.03906 2 6.52906 2 12.0591C2 17.0591 5.66 21.2091 10.44 21.9591V14.9591H7.9V12.0591H10.44V9.84906C10.44 7.33906 11.93 5.95906 14.22 5.95906C15.31 5.95906 16.45 6.14906 16.45 6.14906V8.61906H15.19C13.95 8.61906 13.56 9.38906 13.56 10.1791V12.0591H16.34L15.89 14.9591H13.56V21.9591C15.9164 21.5869 18.0622 20.3846 19.6099 18.5691C21.1576 16.7537 22.0054 14.4447 22 12.0591C22 6.52906 17.5 2.03906 12 2.03906Z" fill="#3B5998"/>
</svg>
