<svg width="24" height="24" viewBox="0 0 24 24" fill="none" xmlns="http://www.w3.org/2000/svg">
<path d="M12.5844 6.47361H11.4188C11.3122 6.47361 11.2249 6.55685 11.2249 6.65859V13.0243C11.2249 13.0845 11.254 13.1399 11.3049 13.1746L15.3107 15.9656C15.3979 16.0257 15.5191 16.0095 15.5821 15.9263L16.2752 15.0245C16.3406 14.9389 16.3212 14.8233 16.234 14.7655L12.7783 12.3815V6.65859C12.7783 6.55685 12.6911 6.47361 12.5844 6.47361ZM17.9109 8.21245L21.7107 9.09806C21.8319 9.12581 21.9507 9.03794 21.9507 8.92001L21.97 5.18566C21.97 5.03074 21.7834 4.94287 21.6574 5.03999L17.8382 7.88642C17.8094 7.90773 17.7874 7.93637 17.7748 7.96907C17.7623 8.00176 17.7596 8.03717 17.7672 8.07123C17.7748 8.10529 17.7924 8.13661 17.8178 8.16159C17.8432 8.18658 17.8755 8.20421 17.9109 8.21245ZM21.9749 15.1748L20.6009 14.7239C20.5529 14.7082 20.5005 14.711 20.4548 14.7318C20.409 14.7525 20.3736 14.7895 20.3561 14.8349C20.3101 14.9528 20.2616 15.0684 20.2107 15.184C19.7793 16.1575 19.1614 17.0338 18.3714 17.7853C17.5901 18.5331 16.6643 19.1291 15.6451 19.5404C14.5893 19.9663 13.4544 20.1849 12.3082 20.1832C11.1498 20.1832 10.0278 19.9681 8.97123 19.5404C7.95207 19.1291 7.02621 18.5331 6.24497 17.7853C5.45738 17.0338 4.83943 16.1575 4.40565 15.184C3.96174 14.176 3.7343 13.0933 3.73681 12C3.73681 10.8947 3.96218 9.82181 4.4105 8.81365C4.84185 7.84017 5.45981 6.96382 6.24982 6.21232C7.03106 5.46457 7.95692 4.86855 8.97608 4.45729C10.0278 4.02952 11.1522 3.81447 12.3106 3.81447C13.469 3.81447 14.591 4.02952 15.6475 4.45729C16.6667 4.86855 17.5926 5.46457 18.3738 6.21232C18.621 6.45049 18.8536 6.6979 19.0669 6.95919L20.516 5.87704C18.6089 3.55087 15.6403 2.05482 12.3058 2.05713C6.49942 2.05944 1.83691 6.55917 1.89507 12.1017C1.95323 17.5472 6.59393 21.9428 12.3106 21.9428C16.8059 21.9428 20.6348 19.2236 22.0936 15.4152C22.13 15.3181 22.0767 15.2094 21.9749 15.1748Z" fill="#545454"/>
</svg>
