<svg width="24" height="24" viewBox="0 0 24 24" fill="none" xmlns="http://www.w3.org/2000/svg">
<path d="M9 3C10.0609 3 11.0783 3.42143 11.8284 4.17157C12.5786 4.92172 13 5.93913 13 7H5C5 5.93913 5.42143 4.92172 6.17157 4.17157C6.92172 3.42143 7.93913 3 9 3ZM11.84 9.82L11 18H10V19C10 19.5304 10.2107 20.0391 10.5858 20.4142C10.9609 20.7893 11.4696 21 12 21C12.5304 21 13.0391 20.7893 13.4142 20.4142C13.7893 20.0391 14 19.5304 14 19V14C14 12.9391 14.4214 11.9217 15.1716 11.1716C15.9217 10.4214 16.9391 10 18 10H20L19 11L20 12H18C17.4696 12 16.9609 12.2107 16.5858 12.5858C16.2107 12.9609 16 13.4696 16 14V19C16 20.0609 15.5786 21.0783 14.8284 21.8284C14.0783 22.5786 13.0609 23 12 23C10.9391 23 9.92172 22.5786 9.17157 21.8284C8.42143 21.0783 8 20.0609 8 19V18H7L6.16 9.82C5.67 9.32 5.31 8.7 5.13 8H12.87C12.69 8.7 12.33 9.32 11.84 9.82ZM9 11C8.73478 11 8.48043 11.1054 8.29289 11.2929C8.10536 11.4804 8 11.7348 8 12C8 12.2652 8.10536 12.5196 8.29289 12.7071C8.48043 12.8946 8.73478 13 9 13C9.26522 13 9.51957 12.8946 9.70711 12.7071C9.89464 12.5196 10 12.2652 10 12C10 11.7348 9.89464 11.4804 9.70711 11.2929C9.51957 11.1054 9.26522 11 9 11Z" fill="#545454"/>
</svg>
