<svg width="45" height="45" viewBox="0 0 45 45" fill="none" xmlns="http://www.w3.org/2000/svg">
<path d="M8.26923 27C7.13696 27 6.05106 26.5259 5.25043 25.682C4.44979 24.8381 4 23.6935 4 22.5C4 21.3065 4.44979 20.1619 5.25043 19.318C6.05106 18.4741 7.13696 18 8.26923 18C9.4015 18 10.4874 18.4741 11.288 19.318C12.0887 20.1619 12.5385 21.3065 12.5385 22.5C12.5385 23.6935 12.0887 24.8381 11.288 25.682C10.4874 26.5259 9.4015 27 8.26923 27ZM22.5 27C21.3677 27 20.2818 26.5259 19.4812 25.682C18.6806 24.8381 18.2308 23.6935 18.2308 22.5C18.2308 21.3065 18.6806 20.1619 19.4812 19.318C20.2818 18.4741 21.3677 18 22.5 18C23.6323 18 24.7182 18.4741 25.5188 19.318C26.3194 20.1619 26.7692 21.3065 26.7692 22.5C26.7692 23.6935 26.3194 24.8381 25.5188 25.682C24.7182 26.5259 23.6323 27 22.5 27ZM36.7308 27C35.5985 27 34.5126 26.5259 33.712 25.682C32.9113 24.8381 32.4615 23.6935 32.4615 22.5C32.4615 21.3065 32.9113 20.1619 33.712 19.318C34.5126 18.4741 35.5985 18 36.7308 18C37.863 18 38.9489 18.4741 39.7496 19.318C40.5502 20.1619 41 21.3065 41 22.5C41 23.6935 40.5502 24.8381 39.7496 25.682C38.9489 26.5259 37.863 27 36.7308 27Z" fill="#2A2D36"/>
</svg>
