<svg width="45" height="45" viewBox="0 0 45 45" fill="none" xmlns="http://www.w3.org/2000/svg">
<path fill-rule="evenodd" clip-rule="evenodd" d="M18.7 34.0714C18.7 34.5829 18.4998 35.0735 18.1435 35.4351C17.7872 35.7968 17.3039 36 16.8 36H14.9C14.3961 36 13.9128 35.7968 13.5565 35.4351C13.2002 35.0735 13 34.5829 13 34.0714V10.9286C13 10.4171 13.2002 9.92654 13.5565 9.56487C13.9128 9.20319 14.3961 9 14.9 9H16.8C17.3039 9 17.7872 9.20319 18.1435 9.56487C18.4998 9.92654 18.7 10.4171 18.7 10.9286V34.0714ZM32 34.0714C32 34.5829 31.7998 35.0735 31.4435 35.4351C31.0872 35.7968 30.6039 36 30.1 36H28.2C27.6961 36 27.2128 35.7968 26.8565 35.4351C26.5002 35.0735 26.3 34.5829 26.3 34.0714V10.9286C26.3 10.4171 26.5002 9.92654 26.8565 9.56487C27.2128 9.20319 27.6961 9 28.2 9H30.1C30.6039 9 31.0872 9.20319 31.4435 9.56487C31.7998 9.92654 32 10.4171 32 10.9286V34.0714Z" fill="#3E3E3E"/>
</svg>
